<svg id="Capa_1" data-name="Capa 1" xmlns="http://www.w3.org/2000/svg" viewBox="0 0 90.71 90.71"><defs><style>.cls-1{fill:#666;}</style></defs><title>globe</title><path class="cls-1" d="M45.36,0A45.35,45.35,0,1,0,90.71,45.35,45.41,45.41,0,0,0,45.36,0ZM84,45.35a38.52,38.52,0,0,1-8,23.53,6.17,6.17,0,0,1-1.51-7.2C76,58.57,76.32,51.35,76,48.54S74.22,39,70.26,38.91s-6.68-1.37-9-6.06c-4.88-9.77,9.16-11.65,4.28-17.05-1.37-1.52-8.42,6.25-9.46-4.11-.07-.74.64-1.85,1.59-3A38.75,38.75,0,0,1,84,45.35ZM40,7.05c-.93,1.8-3.37,2.54-4.85,3.89-3.23,2.92-4.62,2.52-6.36,5.32s-7.4,6.85-7.4,8.88,2.85,4.42,4.28,4a15.24,15.24,0,0,1,7.4.33c2.22.78,18.49,1.57,13.3,15.33-1.64,4.37-8.85,3.64-10.77,10.88a57.54,57.54,0,0,0-1.35,7.09c-.12,2.3,1.63,11-.59,11s-8.21-7.74-8.21-9.15S24,58.21,24,54s-7.17-4.14-7.17-9.74c0-5,3.89-7.56,3-10s-7.69-2.49-10.53-2.79A38.8,38.8,0,0,1,40,7.05Zm-6.85,75c2.32-1.23,2.56-2.82,4.67-2.9,2.41-.11,4.37-.94,7.09-1.54,2.41-.52,6.72-3,10.52-3.28,3.2-.26,9.52.17,11.22,3.26a38.5,38.5,0,0,1-33.49,4.46Z"/></svg>