<svg id="Capa_1" data-name="Capa 1" xmlns="http://www.w3.org/2000/svg" viewBox="0 0 90.71 90.71"><defs><style>.cls-1{fill:#333;}</style></defs><title>globe-mobile</title><path class="cls-1" d="M45.35,0A45.35,45.35,0,1,0,90.71,45.35,45.41,45.41,0,0,0,45.35,0ZM73.25,24.42H65.3a48.42,48.42,0,0,0-5.65-10.88A35.1,35.1,0,0,1,73.25,24.42Zm-24.4,0V11.81a36.24,36.24,0,0,1,9,12.62Zm11.4,7a53.87,53.87,0,0,1,1.58,10.47h-13V31.4ZM41.87,11.81V24.42h-9A36.23,36.23,0,0,1,41.87,11.81Zm0,19.59V41.87h-13A53.87,53.87,0,0,1,30.47,31.4Zm-20,10.47H10.64A34.6,34.6,0,0,1,13.39,31.4h9.94A61.5,61.5,0,0,0,21.9,41.87Zm0,7a61.51,61.51,0,0,0,1.43,10.47H13.39a34.6,34.6,0,0,1-2.75-10.47Zm7,0h13V59.31H30.47A53.87,53.87,0,0,1,28.88,48.84Zm13,17.44V78.9a36.24,36.24,0,0,1-9-12.62Zm7,12.62V66.29h9A36.24,36.24,0,0,1,48.84,78.9Zm0-19.59V48.84h13a53.87,53.87,0,0,1-1.58,10.47Zm20-10.47H80.07a34.6,34.6,0,0,1-2.75,10.47H67.38A61.51,61.51,0,0,0,68.81,48.84Zm0-7A61.5,61.5,0,0,0,67.38,31.4h9.94a34.6,34.6,0,0,1,2.75,10.47ZM31.06,13.54a48.42,48.42,0,0,0-5.65,10.88H17.46A35.1,35.1,0,0,1,31.06,13.54ZM17.46,66.29h7.95a48.42,48.42,0,0,0,5.65,10.88A35.09,35.09,0,0,1,17.46,66.29ZM59.65,77.17A48.42,48.42,0,0,0,65.3,66.29h7.95A35.1,35.1,0,0,1,59.65,77.17Z"/></svg>