<svg id="Capa_1" data-name="Capa 1" xmlns="http://www.w3.org/2000/svg" viewBox="0 0 90.71 90.71"><defs><style>.cls-1{fill:#666;}</style></defs><title>search</title><path class="cls-1" d="M88.78,79.35,66.91,57.48a35.7,35.7,0,0,0,6.46-20.79,36.07,36.07,0,0,0-2.89-14.25A35.94,35.94,0,0,0,50.94,2.89a36.57,36.57,0,0,0-28.51,0A35.94,35.94,0,0,0,2.89,22.43a36.57,36.57,0,0,0,0,28.5A36,36,0,0,0,22.43,70.48a36.07,36.07,0,0,0,14.25,2.89,35.68,35.68,0,0,0,20.79-6.46L79.35,88.73a6.19,6.19,0,0,0,4.69,2,6.67,6.67,0,0,0,4.74-11.36ZM53.18,53.18A22.48,22.48,0,0,1,36.69,60a22.49,22.49,0,0,1-16.49-6.85,22.48,22.48,0,0,1-6.85-16.49,22.48,22.48,0,0,1,6.85-16.49,22.48,22.48,0,0,1,16.49-6.85,22.48,22.48,0,0,1,16.49,6.85A22.48,22.48,0,0,1,60,36.69a22.49,22.49,0,0,1-6.85,16.49Zm0,0"/></svg>